# xmcd
#
# Track frame offsets:
#	150
#	19689
#	33807
#	47400
#	62802
#	75175
#	92482
#	107280
#	121144
#	135567
#
# Disc length: 2012 seconds
#
# Revision: 8
# Processed by: cddbd v1.5.2PL0 Copyright (c) Steve Scherf et al.
# Submitted via: audiograbber 1.83.01
#
DISCID=6307da0a
DTITLE=Kris Kristofferson - The Complete Monument and Columbia Albums Collection 
DTITLE=(CD 02) - The Silver Tongued Devil And I [remastered 2016]
DYEAR=1971
DGENRE=Singer/Songwriter
TTITLE0=The Silver Tongued Devil And I
TTITLE1=Jody And The Kid
TTITLE2=Billy Dee
TTITLE3=Good Christian Soldier
TTITLE4=Breakdown (A Long Way From Home)
TTITLE5=Loving Her Was Easier (Than Anything I'll Ever Do Again)
TTITLE6=The Taker
TTITLE7=When I Loved Her
TTITLE8=The Pilgrim - Chapter 33
TTITLE9=Epitaph (Black And Blue)
EXTD=
EXTT0=
EXTT1=
EXTT2=
EXTT3=
EXTT4=
EXTT5=
EXTT6=
EXTT7=
EXTT8=
EXTT9=
PLAYORDER=
